<?xml version="1.0" encoding="utf-8"?>
<!-- Generator: Adobe Illustrator 27.0.0, SVG Export Plug-In . SVG Version: 6.00 Build 0)  -->
<svg version="1.1" id="Layer_1" xmlns="http://www.w3.org/2000/svg" xmlns:xlink="http://www.w3.org/1999/xlink" x="0px" y="0px"
	 viewBox="0 0 720 117.23" style="enable-background:new 0 0 720 117.23;" xml:space="preserve">
<style type="text/css">
	.st0{fill:#38D430;}
</style>
<g>
	<g>
		<path class="st0" d="M161.21,67.79c0,5.41-1.81,9.77-5.53,13.33c-3.7,3.54-8.1,5.18-13.83,5.18c-5.72,0-10.28-1.7-13.93-5.18
			c-3.65-3.49-5.43-7.85-5.43-13.33V17.76h-17.24v50.03c0,9.77,3.55,18.12,10.55,24.81c6.93,6.62,15.69,9.98,26.05,9.98
			c10.36,0,19.12-3.36,26.05-9.98c7-6.7,10.55-15.04,10.55-24.81V17.76h-17.24V67.79z"/>
		<path class="st0" d="M481.65,14.65c-12.42,0-22.94,4.23-31.29,12.58c-8.35,8.34-12.58,18.87-12.58,31.29
			c0,12.29,4.23,22.81,12.58,31.28c8.34,8.35,18.87,12.58,31.29,12.58c12.34,0,22.83-4.23,31.18-12.58
			c8.42-8.42,12.69-18.94,12.69-31.29c0-12.47-4.27-22.99-12.69-31.29C504.48,18.88,493.99,14.65,481.65,14.65 M508.11,58.52
			c0,7.7-2.48,13.97-7.56,19.14c-5.08,5.07-11.26,7.53-18.9,7.53c-7.65,0-13.83-2.46-18.88-7.51c-5.1-5.19-7.58-11.45-7.58-19.16
			c0-7.72,2.48-13.96,7.58-19.06c5.04-5.12,11.22-7.62,18.88-7.62s13.85,2.5,18.92,7.65C505.64,44.57,508.11,50.79,508.11,58.52"/>
		<path class="st0" d="M591.94,60.79c3.89-4.8,5.86-10.43,5.86-16.75c0-7.58-2.68-13.97-7.95-18.98
			c-5.19-5.07-11.71-7.63-19.36-7.63h-37V99.6h16.49V70.65h17.52l18.27,28.95h19.42l-20.55-32.59
			C587.43,65.41,589.89,63.32,591.94,60.79 M581.22,44.04c0,3.03-0.96,5.36-3.02,7.37c-2.05,1.99-4.57,2.96-7.7,2.96h-20.51V33.71
			h20.51c3.16,0,5.59,0.95,7.64,3l0.13,0.13C580.29,38.73,581.22,41.02,581.22,44.04"/>
		<polygon class="st0" points="637.57,57.87 676.35,17.44 653.83,17.44 624.06,48.46 624.06,17.44 607.58,17.44 607.58,99.6 
			624.06,99.6 624.06,67.24 655.87,99.6 678.6,99.6 		"/>
		<polygon class="st0" points="441.63,17.43 424.19,17.43 407.07,67.36 390.27,17.43 378.35,17.43 361.53,67.26 344.31,17.43 
			326.98,17.43 355.74,99.6 367.61,99.6 384.27,50.23 401.02,99.6 412.87,99.6 441.32,18.32 		"/>
		<polygon class="st0" points="265.25,99.15 320.9,99.15 320.9,82.87 281.74,82.87 281.74,65.7 320.9,65.7 320.9,49.42 
			281.74,49.42 281.74,33.26 320.9,33.26 320.9,16.98 265.25,16.98 		"/>
		<path class="st0" d="M61.05,31.85c9.41,0,17.54,4.29,22.31,11.76l0.47,0.73l12.44-12.43l-0.37-0.49
			c-8.04-10.66-20.74-16.77-34.85-16.77c-12.41,0-22.94,4.23-31.29,12.58c-8.35,8.35-12.58,18.88-12.58,31.29
			c0,12.29,4.23,22.82,12.58,31.28c8.35,8.35,18.88,12.58,31.29,12.58c14.11,0,26.81-6.12,34.85-16.78l0.36-0.48L83.83,72.69
			l-0.47,0.73c-4.78,7.47-12.91,11.76-22.31,11.76c-7.65,0-13.83-2.46-18.88-7.51c-5.1-5.19-7.58-11.45-7.58-19.16
			c0-7.72,2.48-13.96,7.58-19.06C47.21,34.34,53.38,31.85,61.05,31.85"/>
		<path class="st0" d="M248.93,57.05c0.14,0,6.1-6.33,6.1-14.09c0-7.03-2.61-13.28-7.55-18.05c-4.91-4.74-10.95-7.14-17.98-7.14
			h-40.25v81.39h40.48c7.39,0,13.62-2.4,18.51-7.11c5.11-4.81,7.71-10.85,7.71-17.96C255.94,68.2,253,61.76,248.93,57.05
			 M205.73,33.54h23.77c2.4,0,4.27,0.74,5.88,2.33c1.62,1.6,2.31,3.29,2.31,5.63c0,2.35-0.63,3.94-2.24,5.58l-0.07,0.06
			c-1.61,1.59-3.48,2.33-5.88,2.33h-23.77V33.54z M236.74,80.69c-1.85,1.78-4.15,2.64-7.01,2.64h-24V65.05h24
			c2.87,0,5.16,0.86,7.01,2.64c1.79,1.71,2.62,3.78,2.62,6.5C239.36,76.92,238.53,78.98,236.74,80.69"/>
	</g>
	<g>
		<path class="st0" d="M693.01,17.65c-5.5,0-9.81,4.32-9.81,9.83c0,5.5,4.31,9.81,9.81,9.81c5.5,0,9.81-4.31,9.81-9.81
			C702.82,21.96,698.51,17.65,693.01,17.65 M693.01,35.64c-4.58,0-8.16-3.58-8.16-8.16c0-4.58,3.58-8.17,8.16-8.17
			c4.58,0,8.16,3.59,8.16,8.17C701.17,32.05,697.59,35.64,693.01,35.64"/>
		<path class="st0" d="M697.17,25.25c0-2.11-1.51-3.52-3.74-3.52h-4.16v11.06h1.65v-4.06h2.2l2.9,4.06h2.02l-3.07-4.35
			C696.14,28.03,697.17,26.9,697.17,25.25 M690.91,23.32h2.25c1.46,0,2.34,0.71,2.34,1.89c0,1.23-0.83,1.91-2.32,1.91h-2.27V23.32z"
			/>
	</g>
</g>
</svg>
